<svg xmlns="http://www.w3.org/2000/svg" width="825.453" height="664.636" viewBox="0 0 825.453 664.636"><defs><style>.a,.b{fill:none;stroke:tomato;stroke-linecap:round;mix-blend-mode:darken;isolation:isolate;}.a{stroke-width:15px;}.b{stroke-width:25px;}</style></defs><g transform="translate(-163.273 -12.182)"><line class="a" y1="165" x2="250" transform="translate(577.5 194.5)"/><line class="a" x2="250" y2="165" transform="translate(327.5 194.5)"/><line class="a" x2="250" y2="165" transform="matrix(-0.545, -0.839, 0.839, -0.545, 575.389, 659.767)"/><line class="b" x2="250" y2="165" transform="matrix(-0.545, -0.839, 0.839, -0.545, 826.389, 494.767)"/><line class="b" x2="250" y2="165" transform="matrix(-0.545, -0.839, 0.839, -0.545, 323.389, 494.767)"/><line class="b" y1="165" x2="250" transform="translate(327.5 29.5)"/><line class="b" x2="250" y2="165" transform="translate(576.5 29.5)"/><line class="b" x2="250" y2="165" transform="translate(324.5 494.5)"/><line class="b" y1="165" x2="250" transform="translate(576.5 494.5)"/><line class="a" y1="115.267" x2="1.11" transform="translate(577.5 29.233)"/><path class="a" d="M0,57.474,89.66,0" transform="matrix(0.998, 0.07, -0.07, 0.998, 326.509, 437.166)"/><path class="a" d="M0,0,89.66,57.474" transform="matrix(-0.998, 0.07, -0.07, -0.998, 829.95, 494.5)"/><g transform="translate(141 118.755)"><line class="a" y1="105.375" x2="159.659" transform="translate(435.748 134.875)"/><line class="a" x2="159.659" y2="105.375" transform="translate(276.089 134.875)"/><line class="a" x2="159.659" y2="105.375" transform="matrix(-0.545, -0.839, 0.839, -0.545, 434.4, 432.012)"/><line class="a" x2="159.659" y2="105.375" transform="matrix(-0.545, -0.839, 0.839, -0.545, 596.614, 326.637)"/><line class="a" x2="159.659" y2="105.375" transform="matrix(-0.545, -0.839, 0.839, -0.545, 272.186, 326.637)"/><line class="a" y1="105.375" x2="159.659" transform="translate(276.089 29.5)"/><line class="a" x2="159.659" y2="105.375" transform="translate(435.11 29.5)"/><line class="a" x2="159.659" y2="105.375" transform="translate(274.173 326.466)"/><line class="a" y1="105.375" x2="159.659" transform="translate(435.11 326.466)"/></g></g></svg>