<svg width="25" height="26" viewBox="0 0 25 26" fill="none" xmlns="http://www.w3.org/2000/svg">
<g opacity="0.8">
<path d="M4.07898 10.2092C4.32084 10.4353 4.83504 10.4845 5.12169 10.1486L6.9568 8.05489C7.22337 7.7508 7.19265 7.28842 6.88822 7.02214C6.58385 6.75591 6.12098 6.78648 5.85445 7.09062L4.50986 8.62467L4.14946 8.2989C3.84938 8.02773 3.38617 8.05083 3.11466 8.35057C2.8432 8.65031 2.86635 9.11308 3.16638 9.38429L4.07898 10.2092Z" fill="#4A4A4A"/>
<path d="M13.0937 8.90594H8.86641C8.46181 8.90594 8.13379 9.23362 8.13379 9.63783C8.13379 10.042 8.46181 10.3697 8.86641 10.3697H13.0937C13.4983 10.3697 13.8263 10.042 13.8263 9.63783C13.8263 9.23362 13.4983 8.90594 13.0937 8.90594Z" fill="#4A4A4A"/>
<path d="M13.0938 11.9418H3.59785C3.19325 11.9418 2.86523 12.2694 2.86523 12.6737C2.86523 13.0779 3.19325 13.4055 3.59785 13.4055H13.0938C13.4984 13.4055 13.8264 13.0779 13.8264 12.6737C13.8264 12.2694 13.4984 11.9418 13.0938 11.9418Z" fill="#4A4A4A"/>
<path d="M4.07898 18.5991C4.32084 18.8253 4.83504 18.8745 5.12169 18.5386L6.9568 16.4448C7.22337 16.1408 7.19265 15.6784 6.88822 15.4121C6.58385 15.1459 6.12098 15.1764 5.85445 15.4806L4.50986 17.0146L4.14946 16.6889C3.84938 16.4177 3.38612 16.4409 3.11466 16.7406C2.8432 17.0403 2.86635 17.5031 3.16638 17.7743L4.07898 18.5991Z" fill="#4A4A4A"/>
<path d="M13.0937 17.2932H8.86641C8.46181 17.2932 8.13379 17.6209 8.13379 18.0251C8.13379 18.4293 8.46181 18.757 8.86641 18.757H13.0937C13.4983 18.757 13.8263 18.4293 13.8263 18.0251C13.8263 17.6209 13.4983 17.2932 13.0937 17.2932Z" fill="#4A4A4A"/>
<path d="M13.0938 20.2855H3.59785C3.19325 20.2855 2.86523 20.6132 2.86523 21.0174C2.86523 21.4216 3.19325 21.7493 3.59785 21.7493H13.0938C13.4984 21.7493 13.8264 21.4216 13.8264 21.0174C13.8264 20.6132 13.4984 20.2855 13.0938 20.2855Z" fill="#4A4A4A"/>
<path d="M23.2127 0H9.26283C9.13008 0.000634935 8.97139 0.026765 8.81466 0.0877188C8.66648 0.0592932 8.51463 0.0445432 8.36058 0.0445432C7.7321 0.0445432 7.13897 0.286747 6.69056 0.726561C6.41983 0.992062 6.22012 1.31163 6.10178 1.66123H5.31876C4.76578 1.66123 4.31292 2.0926 4.27683 2.63606H1.69323C0.759578 2.63606 0 3.39485 0 4.32757V23.333C0 24.2657 0.759578 25.0245 1.69323 25.0245H15.028C15.8091 25.0245 16.468 24.4933 16.6626 23.7736H23.3358C24.2162 23.7203 25.0163 22.9209 24.9997 21.9884V1.78519C24.9997 0.800849 24.1981 0 23.2127 0ZM5.7385 3.12496H6.70936C7.10825 3.12496 7.43382 2.80617 7.44183 2.40777C7.4518 1.91174 7.86397 1.50822 8.36058 1.50822C8.8572 1.50822 9.26937 1.91174 9.27938 2.40777C9.28739 2.80617 9.61297 3.12496 10.0119 3.12496H10.9827V3.93108H5.7385V3.12496ZM15.256 23.3329C15.256 23.4586 15.1537 23.5607 15.028 23.5607H1.69323C1.56751 23.5607 1.46524 23.4586 1.46524 23.3329V4.32752C1.46524 4.20195 1.56751 4.09978 1.69323 4.09978H4.27326V4.25529C4.27326 4.88363 4.78497 5.39485 5.41395 5.39485H11.3073C11.9362 5.39485 12.448 4.88368 12.448 4.25529V4.09978H15.028C15.1537 4.09978 15.256 4.20195 15.256 4.32752V23.3329ZM23.5345 21.9884C23.5345 22.1516 23.4124 22.2887 23.2505 22.3072C23.2434 22.308 23.2364 22.3089 23.2294 22.3099H16.7212V4.32752C16.7212 3.39485 15.9616 2.63601 15.028 2.63601H12.444C12.4034 2.09187 11.9482 1.66119 11.3933 1.66119H10.6194C10.5967 1.59408 10.57 1.52844 10.5414 1.46372H23.2127C23.3901 1.46372 23.5345 1.60795 23.5345 1.78519V21.9884Z" fill="#4A4A4A"/>
</g>
</svg>
