<svg width="18" height="24" viewBox="0 0 18 24" fill="none" xmlns="http://www.w3.org/2000/svg">
<path opacity="0.8" d="M15.75 3H12C12 1.35938 10.6406 0 9 0C7.3125 0 6 1.35938 6 3H2.25C0.984375 3 0 4.03125 0 5.25V21.75C0 23.0156 0.984375 24 2.25 24H15.75C16.9688 24 18 23.0156 18 21.75V5.25C18 4.03125 16.9688 3 15.75 3ZM9 1.875C9.60938 1.875 10.125 2.39062 10.125 3C10.125 3.65625 9.60938 4.125 9 4.125C8.34375 4.125 7.875 3.65625 7.875 3C7.875 2.39062 8.34375 1.875 9 1.875ZM14.6719 12.75L7.96875 19.4062C7.73438 19.6406 7.35938 19.6406 7.17188 19.4062L3.28125 15.5156C3.04688 15.2812 3.09375 14.9062 3.28125 14.7188L4.64062 13.3594C4.82812 13.1719 5.20312 13.1719 5.4375 13.4062L7.59375 15.5625L12.5625 10.6406C12.75 10.4062 13.125 10.4062 13.3594 10.6406L14.6719 11.9531C14.9062 12.1875 14.8594 12.5625 14.6719 12.75Z" fill="white"/>
</svg>
