<svg width="73" height="95" viewBox="0 0 73 95" fill="none" xmlns="http://www.w3.org/2000/svg">
<path d="M72.4845 93.1412L70.7367 79.1401C70.3299 75.8588 69.1661 72.717 67.3371 69.9626C65.5082 67.2082 63.0641 64.9165 60.1978 63.2684C61.283 62.7914 62.2062 62.0093 62.8549 61.0171C63.5035 60.0249 63.8498 58.8655 63.8514 57.6801V49.6243C64.7205 49.1707 65.4486 48.4876 65.9567 47.6492C66.4648 46.8109 66.7335 45.8493 66.7335 44.869V36.446C66.7325 35.4649 66.4635 34.5027 65.9556 33.6634C65.4476 32.824 64.7201 32.1393 63.8514 31.6832V28.7082C63.8558 25.4061 63.3107 22.1263 62.2384 19.0032C62.169 18.8012 62.0604 18.6148 61.9189 18.4547C61.7774 18.2946 61.6057 18.1639 61.4137 18.0702C61.2217 17.9764 61.0132 17.9214 60.7999 17.9083C60.5866 17.8951 60.3729 17.9241 60.1708 17.9936C59.9688 18.063 59.7824 18.1716 59.6223 18.3131C59.4622 18.4546 59.3315 18.6263 59.2378 18.8183C59.144 19.0103 59.089 19.2189 59.0759 19.4321C59.0627 19.6454 59.0917 19.8591 59.1612 20.0612C60.1161 22.8436 60.6016 25.7655 60.5975 28.7073V31.0594H58.9594V29.386C58.9594 16.4038 48.8816 5.84163 36.4945 5.84163C24.1073 5.84163 14.0286 16.4066 14.0286 29.3897V31.0631H12.3932V28.711C12.3501 22.0202 14.8862 15.57 19.4747 10.7002C21.6532 8.36705 24.2869 6.50524 27.2131 5.22971C30.1393 3.95418 33.2959 3.292 36.4879 3.28406C41.1675 3.28538 45.7361 4.70977 49.5872 7.36817C49.7635 7.48904 49.9618 7.57401 50.1709 7.61824C50.3799 7.66246 50.5957 7.66507 50.8058 7.62592C51.0158 7.58677 51.2162 7.50663 51.3953 7.39006C51.5744 7.2735 51.7288 7.12279 51.8496 6.94656C51.9705 6.77033 52.0555 6.57201 52.0997 6.36294C52.1439 6.15386 52.1465 5.93813 52.1074 5.72804C52.0682 5.51796 51.9881 5.31765 51.8715 5.13854C51.755 4.95943 51.6043 4.80503 51.428 4.68417C46.2071 1.09124 39.8683 -0.504382 33.5685 0.188571C27.2688 0.881525 21.4283 3.81684 17.1133 8.4587C11.9498 13.9328 9.09398 21.186 9.13933 28.711V31.686C8.27076 32.1422 7.54326 32.8269 7.03535 33.6662C6.52745 34.5056 6.25842 35.4677 6.2573 36.4488V44.8718C6.25529 45.853 6.52306 46.8159 7.03134 47.6552C7.53962 48.4945 8.26885 49.178 9.13933 49.6308V57.6801C9.14091 58.8672 9.48803 60.0282 10.1383 61.0214C10.7886 62.0145 11.7139 62.7969 12.8014 63.2731C10.6546 64.5045 8.73943 66.1015 7.14236 67.9922C6.86399 68.3223 6.72817 68.7495 6.76478 69.1798C6.80139 69.6101 7.00744 70.0083 7.3376 70.2866C7.66775 70.565 8.09497 70.7008 8.52526 70.6642C8.95556 70.6276 9.35369 70.4216 9.63206 70.0914C13.5572 65.4355 18.1852 64.1563 24.1752 63.0193C23.503 74.2759 30.7936 75.9233 31.1237 75.9921C32.4754 76.271 33.0091 74.9267 33.5325 74.4516L29.8137 91.7178H3.96841L4.77352 85.2518C4.79983 85.0398 4.78411 84.8246 4.72726 84.6186C4.67042 84.4126 4.57355 84.2198 4.4422 84.0513C4.17693 83.7108 3.78729 83.4897 3.359 83.4366C3.14693 83.4103 2.93176 83.426 2.72576 83.4829C2.51977 83.5397 2.32699 83.6366 2.15843 83.7679C1.81801 84.0332 1.59692 84.4228 1.54378 84.8511L0.51183 93.1439C0.483516 93.3728 0.504143 93.605 0.572347 93.8253C0.640551 94.0456 0.754774 94.2489 0.907452 94.4217C1.06013 94.5945 1.24778 94.7329 1.45797 94.8277C1.66816 94.9225 1.89611 94.9716 2.1267 94.9717H70.8678C71.0988 94.9719 71.3272 94.923 71.5379 94.8281C71.7485 94.7332 71.9365 94.5946 72.0895 94.4214C72.2424 94.2483 72.3567 94.0446 72.4248 93.8238C72.4929 93.6031 72.5133 93.3704 72.4845 93.1412ZM57.7434 60.5342H52.751C49.9541 59.8565 47.1173 59.3559 44.2574 59.0356C49.0449 57.2761 53.0898 53.9375 55.725 49.5704C56.5261 50.0203 57.4289 50.2581 58.3477 50.2612H60.5975V57.6801C60.5968 58.4368 60.2959 59.1623 59.7608 59.6974C59.2257 60.2325 58.5001 60.5335 57.7434 60.5342ZM41.7128 72.4603L38.7601 68.9442L42.3664 66.8152C42.6099 66.6715 42.8118 66.4668 42.952 66.2213C43.0922 65.9757 43.166 65.6978 43.1659 65.4151V62.2002C43.8384 62.2672 44.5105 62.3456 45.1824 62.4354C45.8109 69.2826 43.1343 71.6821 41.7128 72.4603ZM9.51121 36.446C9.51194 35.8816 9.73648 35.3405 10.1356 34.9414C10.5347 34.5423 11.0758 34.3178 11.6402 34.317H14.6431C14.9233 34.3163 15.2009 34.3708 15.4601 34.4774C15.7192 34.584 15.9548 34.7407 16.1534 34.9384C16.352 35.1361 16.5097 35.371 16.6174 35.6297C16.7252 35.8884 16.7809 36.1658 16.7814 36.446V44.869C16.7822 45.15 16.7275 45.4285 16.6203 45.6883C16.5132 45.9481 16.3557 46.1842 16.157 46.3829C15.9583 46.5816 15.7222 46.7391 15.4624 46.8462C15.2026 46.9534 14.9241 47.0081 14.6431 47.0073H11.6402C11.3594 47.0086 11.0812 46.9542 10.8217 46.8471C10.5622 46.74 10.3265 46.5824 10.1284 46.3834C9.93034 46.1845 9.77376 45.9482 9.6678 45.6882C9.56185 45.4282 9.50862 45.1497 9.51121 44.869V36.446ZM14.7695 50.2528C15.6452 50.2328 16.5028 49.9992 17.2676 49.5723C17.7341 50.3488 18.2466 51.0967 18.8025 51.8119H16.2124C15.8297 51.8114 15.4629 51.6591 15.1923 51.3884C14.9218 51.1177 14.7698 50.7508 14.7695 50.3681V50.2528ZM19.5676 47.0352C19.8721 46.3525 20.0304 45.6137 20.0325 44.8662V36.446C20.0292 35.314 19.6684 34.2119 19.0015 33.2972C21.4391 32.0002 23.053 29.756 24.5164 27.7014C26.9336 24.3034 28.607 22.2357 32.2616 22.5881C32.6769 22.6259 33.0911 22.5043 33.42 22.2478C37.8239 18.7912 39.6898 20.7603 43.4904 25.5426C46.0005 28.6943 49.0025 32.4577 53.6658 33.8029C53.2032 34.6072 52.9584 35.5182 52.9555 36.446V44.869C52.9584 45.6149 53.1167 46.352 53.4203 47.0333C52.5317 48.6935 51.404 50.2143 50.0735 51.5469C47.5069 54.1268 44.2542 55.9166 40.7013 56.7039C41.3363 56.0424 41.7627 55.2087 41.9272 54.3066C42.0916 53.4045 41.987 52.4739 41.6263 51.6309C41.2656 50.7878 40.6647 50.0696 39.8987 49.5656C39.1326 49.0617 38.2351 48.7943 37.3182 48.7969H31.1274C30.6959 48.7969 30.2821 48.9683 29.9769 49.2734C29.6718 49.5785 29.5004 49.9924 29.5004 50.4239V51.8184H23.1785C21.7323 50.4225 20.5139 48.8085 19.5676 47.0352ZM61.3506 34.317C61.9148 34.318 62.4557 34.5427 62.8546 34.9417C63.2535 35.3408 63.4779 35.8818 63.4786 36.446V44.869C63.4801 45.1493 63.4261 45.4272 63.3199 45.6866C63.2136 45.9461 63.057 46.1819 62.8593 46.3806C62.6615 46.5794 62.4264 46.737 62.1675 46.8446C61.9086 46.9521 61.631 47.0074 61.3506 47.0073H58.3477C58.0667 47.0081 57.7882 46.9534 57.5284 46.8462C57.2686 46.7391 57.0325 46.5816 56.8338 46.3829C56.6351 46.1842 56.4776 45.9481 56.3704 45.6883C56.2633 45.4285 56.2085 45.15 56.2094 44.869V36.446C56.2141 35.8812 56.4411 35.341 56.8414 34.9424C57.2417 34.5439 57.7829 34.3192 58.3477 34.317H61.3506ZM37.3182 54.9087H32.7543V52.048H37.3182C37.5091 52.0432 37.699 52.0766 37.8768 52.1463C38.0546 52.2159 38.2166 52.3205 38.3534 52.4538C38.4901 52.5871 38.5988 52.7464 38.673 52.9224C38.7472 53.0984 38.7854 53.2874 38.7854 53.4784C38.7854 53.6693 38.7472 53.8583 38.673 54.0343C38.5988 54.2103 38.4901 54.3696 38.3534 54.5029C38.2166 54.6362 38.0546 54.7408 37.8768 54.8105C37.699 54.8801 37.5091 54.9135 37.3182 54.9087ZM29.5004 55.0658V55.8551C28.8988 55.6217 28.3093 55.3582 27.734 55.0658H29.5004ZM33.0788 60.1707C35.3432 60.519 37.6476 60.519 39.912 60.1707V64.4863L36.5 66.501L33.0788 64.4854V60.1707ZM36.4945 9.09832C47.0873 9.09832 55.7055 18.2 55.7055 29.3888V30.9274C51.3908 30.2311 48.6734 26.8275 46.0368 23.5159C42.6081 19.2031 38.7322 14.3269 31.9167 19.3026C26.6565 19.1111 24.1138 22.656 21.8649 25.8104C20.4295 27.8269 19.1381 29.6221 17.2787 30.5193V29.3888C17.2825 18.2 25.9016 9.09832 36.4945 9.09832ZM12.3932 53.0828C12.8251 53.6944 13.3972 54.1936 14.0617 54.5387C14.7262 54.8837 15.4637 55.0644 16.2124 55.0658H21.9225C23.9291 56.7807 26.2241 58.1257 28.7009 59.0384C25.8489 59.3592 23.0199 59.8588 20.2305 60.5342H15.2474C14.4906 60.5335 13.7651 60.2325 13.23 59.6974C12.6949 59.1623 12.394 58.4368 12.3932 57.6801V53.0828ZM30.9544 72.4575C29.5274 71.6719 26.8657 69.2798 27.4821 62.4791C28.2642 62.3725 29.0464 62.2795 29.8286 62.2002V65.4151C29.8285 65.6981 29.9023 65.9762 30.0427 66.222C30.1831 66.4677 30.3852 66.6725 30.6291 66.8161L34.0178 68.814L30.9544 72.4575ZM36.4489 76.3547L39.5485 91.7159H33.142L36.4489 76.3547ZM42.8693 91.7159L39.4629 74.8393C39.7363 75.0717 40.2792 76.2534 41.5436 75.9903C41.8736 75.9215 49.1875 74.2676 48.4874 62.9588C50.4962 63.3186 52.4855 63.7797 54.4477 64.3404C57.8805 65.3055 60.9515 67.2635 63.2752 69.9684C65.5988 72.6733 67.0714 76.0045 67.5079 79.5435L69.027 91.7159H42.8693ZM2.29311 78.8863C2.53927 77.0721 3.02023 75.2976 3.7239 73.6075C3.89033 73.2093 4.20814 72.8935 4.6074 72.7296C5.00666 72.5657 5.45468 72.5671 5.85288 72.7336C6.25109 72.9 6.56688 73.2178 6.73077 73.6171C6.89465 74.0163 6.89323 74.4644 6.72679 74.8626C6.13133 76.2911 5.72502 77.7913 5.5182 79.3251C5.48926 79.5368 5.41891 79.7407 5.31117 79.9252C5.20342 80.1097 5.06038 80.2712 4.89023 80.4004C4.72007 80.5297 4.52613 80.6241 4.31947 80.6784C4.11281 80.7327 3.89748 80.7457 3.68578 80.7168C3.47408 80.6879 3.27015 80.6175 3.08564 80.5098C2.90113 80.402 2.73964 80.259 2.61041 80.0888C2.48117 79.9187 2.38672 79.7247 2.33243 79.5181C2.27815 79.3114 2.26511 79.0961 2.29404 78.8844L2.29311 78.8863ZM53.9047 11.1343C53.6129 10.8164 53.4593 10.3955 53.4778 9.96437C53.4963 9.5332 53.6853 9.12703 54.0033 8.83522C54.3212 8.54341 54.7421 8.38985 55.1732 8.40833C55.6044 8.42681 56.0106 8.61582 56.3024 8.93377C57.5157 10.2576 58.5933 11.6996 59.5191 13.2382C59.6293 13.4214 59.7024 13.6244 59.7342 13.8358C59.766 14.0472 59.7558 14.2627 59.7043 14.4702C59.6527 14.6776 59.5608 14.8729 59.4338 15.0448C59.3068 15.2168 59.1472 15.362 58.9641 15.4723C58.7809 15.5825 58.5779 15.6556 58.3665 15.6874C58.1551 15.7191 57.9396 15.709 57.7321 15.6574C57.5247 15.6059 57.3294 15.514 57.1575 15.387C56.9855 15.26 56.8403 15.1004 56.73 14.9172C55.9164 13.5654 54.97 12.2982 53.9047 11.1343Z" fill="#6B6B6B"/>
</svg>
